<svg class="main-svg" xmlns="http://www.w3.org/2000/svg" xmlns:xlink="http://www.w3.org/1999/xlink" width="700" height="500" style="" viewBox="0 0 700 500"><rect x="0" y="0" width="700" height="500" style="fill: rgb(255, 255, 255); fill-opacity: 1;"/><defs id="defs-0022f5"><g class="clips"/><g class="gradients"/></defs><g class="bglayer"/><g class="layer-below"><g class="imagelayer"/><g class="shapelayer"/></g><g class="cartesianlayer"/><g class="polarlayer"/><g class="ternarylayer"/><g class="geolayer"/><g class="pielayer"/><g class="sunburstlayer"><g class="trace sunburst" stroke-linejoin="round" style="opacity: 1;"><g class="slice"><path class="surface" d="M375,242.5A0,0 0,1,0 375,242.5A0,0 0,1,0 375,242.5ZM418.5,242.5A43.5,43.5 0,1,1 331.5,242.5A43.5,43.5 0,1,1 418.5,242.5Z" style="pointer-events: all; stroke-width: 1; fill: rgb(0, 0, 0); fill-opacity: 0; stroke: rgb(255, 255, 255); stroke-opacity: 1;"/><g class="slicetext"><text data-notex="1" class="slicetext" text-anchor="middle" x="0" y="0" style="font-family: 'Open Sans', verdana, arial, sans-serif; font-size: 12px; fill: rgb(68, 68, 68); fill-opacity: 1; white-space: pre;" transform="translate(375,242.5)translate(-0.2109375,4.5)">SV genotyping</text></g></g><g class="slice cursor-pointer"><path class="surface" d="M418.5,242.5L462,242.5A87,87 0,1,0 420.8556602481973,316.4341492356672L397.92783012409865,279.4670746178336A43.5,43.5 0,1,1 418.5,242.5Z" style="pointer-events: all; stroke-width: 1; fill: rgb(31, 119, 180); fill-opacity: 1; stroke: rgb(255, 255, 255); stroke-opacity: 1;"/><g class="slicetext"><text data-notex="1" class="slicetext" text-anchor="middle" x="0" y="0" style="font-family: 'Open Sans', verdana, arial, sans-serif; font-size: 12px; fill: rgb(255, 255, 255); fill-opacity: 1; white-space: pre;" transform="translate(323.7147886040255,213.9597897759936)rotate(-60.90407068475861)translate(-0.5703125,4.5)">MR &#60; 0.05</text></g></g><g class="slice"><path class="surface" d="M397.92783012409865,279.4670746178336L420.8556602481973,316.4341492356672A87,87 0,0,0 462,242.50000000000003L418.5,242.5A43.5,43.5 0,0,1 397.92783012409865,279.4670746178336Z" style="pointer-events: all; stroke-width: 1; fill: rgb(255, 127, 14); fill-opacity: 1; stroke: rgb(255, 255, 255); stroke-opacity: 1; opacity: 0.7;"/><g class="slicetext"><text data-notex="1" class="slicetext" text-anchor="middle" x="0" y="0" style="font-family: 'Open Sans', verdana, arial, sans-serif; font-size: 12px; fill: rgb(68, 68, 68); fill-opacity: 1; white-space: pre;" transform="translate(437.09166172144467,277.0539977403119)rotate(-60.90407068475861)translate(-0.5703125,4.5)">MR >= 0.05</text></g></g><g class="slice cursor-pointer"><path class="surface" d="M462,242.5L505.5,242.5A130.5,130.5 0,0,0 251.99356476715337,198.91483175084085L292.99570984476895,213.44322116722722A87,87 0,0,1 462,242.5Z" style="pointer-events: all; stroke-width: 1; fill: rgb(31, 119, 180); fill-opacity: 1; stroke: rgb(255, 255, 255); stroke-opacity: 1;"/><g class="slicetext"><text data-notex="1" class="slicetext" text-anchor="middle" x="0" y="0" style="font-family: 'Open Sans', verdana, arial, sans-serif; font-size: 12px; fill: rgb(255, 255, 255); fill-opacity: 1; white-space: pre;" transform="translate(391.8837925359713,144.29801453244136)rotate(9.755443357526019)translate(-0.0625,4.5)">genotyped AF > 0</text></g></g><g class="slice cursor-pointer"><path class="surface" d="M292.99570984476895,213.44322116722722L251.99356476715337,198.91483175084085A130.5,130.5 0,0,0 443.7834903722959,353.4012238535007L420.8556602481973,316.4341492356672A87,87 0,0,1 292.99570984476895,213.44322116722722Z" style="pointer-events: all; stroke-width: 1; fill: rgb(31, 119, 180); fill-opacity: 1; stroke: rgb(255, 255, 255); stroke-opacity: 1;"/><g class="slicetext"><text data-notex="1" class="slicetext" text-anchor="middle" x="0" y="0" style="font-family: 'Open Sans', verdana, arial, sans-serif; font-size: 12px; fill: rgb(255, 255, 255); fill-opacity: 1; white-space: pre;" transform="translate(312.4938241387852,320.09942254537214)rotate(38.85137267276741)translate(-0.0625,4.5)">genotyped AF = 0</text></g></g><g class="slice"><path class="surface" d="M505.5,242.5L549,242.5A174,174 0,0,0 432.24560202906474,78.18645506736232L417.9342015217985,119.26484130052174A130.5,130.5 0,0,1 505.5,242.5Z" style="pointer-events: all; stroke-width: 1; fill: rgb(31, 119, 180); fill-opacity: 1; stroke: rgb(255, 255, 255); stroke-opacity: 1; opacity: 0.7;"/><g class="slicetext"><text data-notex="1" class="slicetext" text-anchor="middle" x="0" y="0" style="font-family: 'Open Sans', verdana, arial, sans-serif; font-size: 12px; fill: rgb(255, 255, 255); fill-opacity: 1; white-space: pre;" transform="translate(494.18900967293746,157.8092273992338)rotate(54.60397601767124)translate(-0.640625,4.5)">Polymorphic</text></g></g><g class="slice"><path class="surface" d="M417.9342015217985,119.26484130052174L432.24560202906474,78.18645506736232A174,174 0,0,0 282.7761695225961,94.9508045021083L305.83212714194707,131.83810337658122A130.5,130.5 0,0,1 417.9342015217985,119.26484130052174Z" style="pointer-events: all; stroke-width: 1; fill: rgb(31, 119, 180); fill-opacity: 1; stroke: rgb(255, 255, 255); stroke-opacity: 1; opacity: 0.7;"/><g class="slicetext"><text data-notex="1" class="slicetext" text-anchor="middle" x="0" y="0" style="font-family: 'Open Sans', verdana, arial, sans-serif; font-size: 12px; fill: rgb(255, 255, 255); fill-opacity: 1; white-space: pre;" transform="translate(358.0301883400292,91.19868476373009)translate(-0.546875,4.5)">Major</text></g></g><g class="slice"><path class="surface" d="M305.83212714194707,131.83810337658122L282.7761695225961,94.9508045021083A174,174 0,0,0 235.5126319997784,138.48425999700453L270.3844739998338,164.4881949977534A130.5,130.5 0,0,1 305.83212714194707,131.83810337658122Z" style="pointer-events: all; stroke-width: 1; fill: rgb(31, 119, 180); fill-opacity: 1; stroke: rgb(255, 255, 255); stroke-opacity: 1; opacity: 0.7;"/><g class="slicetext"><text data-notex="1" class="slicetext" text-anchor="middle" x="0" y="0" style="font-family: 'Open Sans', verdana, arial, sans-serif; font-size: 12px; fill: rgb(255, 255, 255); fill-opacity: 1; white-space: pre;" transform="translate(264.89776590066026,122.96386362988613)rotate(-42.64752287787951)translate(0.1796875,4.5)">Singleton</text></g></g><g class="slice"><path class="surface" d="M270.3844739998338,164.4881949977534L235.5126319997784,138.48425999700453A174,174 0,0,0 210.99141968953782,184.38644233445453L251.99356476715337,198.9148317508409A130.5,130.5 0,0,1 270.3844739998338,164.4881949977534Z" style="pointer-events: all; stroke-width: 1; fill: rgb(31, 119, 180); fill-opacity: 1; stroke: rgb(255, 255, 255); stroke-opacity: 1; opacity: 0.7;"/><g class="slicetext"><text data-notex="1" class="slicetext" text-anchor="middle" x="0" y="0" style="font-family: 'Open Sans', verdana, arial, sans-serif; font-size: 12px; fill: rgb(255, 255, 255); fill-opacity: 1; white-space: pre;" transform="translate(231.31499994216847,165.74263874180875)rotate(-61.88860839381505)translate(0.1796875,4.5)">Shared</text></g></g><g class="slice cursor-pointer"><path class="surface" d="M251.99356476715337,198.91483175084085L210.99141968953785,184.38644233445444A174,174 0,0,0 251.70957331133002,365.2822083484643L282.5321799834975,334.5866562613482A130.5,130.5 0,0,1 251.99356476715337,198.91483175084085Z" style="pointer-events: all; stroke-width: 1; fill: rgb(31, 119, 180); fill-opacity: 1; stroke: rgb(255, 255, 255); stroke-opacity: 1;"/><g class="slicetext"><text data-notex="1" class="slicetext" text-anchor="middle" x="0" y="0" style="font-family: 'Open Sans', verdana, arial, sans-serif; font-size: 12px; fill: rgb(255, 255, 255); fill-opacity: 1; white-space: pre;" transform="translate(232.3549560151969,274.608229741047)rotate(77.31461028715682)translate(-0.640625,4.5)">Polymorphic</text></g></g><g class="slice cursor-pointer"><path class="surface" d="M282.5321799834975,334.5866562613482L251.70957331133002,365.2822083484643A174,174 0,0,0 349.1356874099097,414.56695596261966L355.60176555743226,371.55021697196474A130.5,130.5 0,0,1 282.5321799834975,334.5866562613482Z" style="pointer-events: all; stroke-width: 1; fill: rgb(31, 119, 180); fill-opacity: 1; stroke: rgb(255, 255, 255); stroke-opacity: 1;"/><g class="slicetext"><text data-notex="1" class="slicetext" text-anchor="middle" x="0" y="0" style="font-family: 'Open Sans', verdana, arial, sans-serif; font-size: 12px; fill: rgb(255, 255, 255); fill-opacity: 1; white-space: pre;" transform="translate(305.72013858090907,379.45246521687636)rotate(26.83338592615962)translate(0.1796875,4.5)">Singleton</text></g></g><g class="slice cursor-pointer"><path class="surface" d="M355.60176555743226,371.55021697196474L349.1356874099097,414.56695596261966A174,174 0,0,0 444.1612471395536,402.16440396688796L426.8709353546652,362.248302975166A130.5,130.5 0,0,1 355.60176555743226,371.55021697196474Z" style="pointer-events: all; stroke-width: 1; fill: rgb(31, 119, 180); fill-opacity: 1; stroke: rgb(255, 255, 255); stroke-opacity: 1;"/><g class="slicetext"><text data-notex="1" class="slicetext" text-anchor="middle" x="0" y="0" style="font-family: 'Open Sans', verdana, arial, sans-serif; font-size: 12px; fill: rgb(255, 255, 255); fill-opacity: 1; white-space: pre;" transform="translate(394.7042531925196,393.4695495990005)translate(-0.546875,4.5)">Major</text></g></g><g class="slice cursor-pointer"><path class="surface" d="M426.8709353546652,362.248302975166L444.1612471395536,402.16440396688796A174,174 0,0,0 466.71132049639453,390.3682984713343L443.7834903722959,353.4012238535007A130.5,130.5 0,0,1 426.8709353546652,362.248302975166Z" style="pointer-events: all; stroke-width: 1; fill: rgb(31, 119, 180); fill-opacity: 1; stroke: rgb(255, 255, 255); stroke-opacity: 1;"/><g class="slicetext"><text data-notex="1" class="slicetext" text-anchor="middle" x="0" y="0" style="font-family: 'Open Sans', verdana, arial, sans-serif; font-size: 12px; fill: rgb(255, 255, 255); fill-opacity: 1; white-space: pre;" transform="translate(445.5178188272511,377.3056770192774)rotate(62.38561060271377)translate(0.1796875,4.5)">Shared</text></g></g><g class="slice"><path class="surface" d="M210.99141968953785,184.38644233445444L169.9892746119223,169.85805291806807A217.5,217.5 0,0,0 166.5801094086263,304.6884169751877L208.26408752690102,292.25073358015015A174,174 0,0,1 210.99141968953785,184.38644233445444Z" style="pointer-events: all; stroke-width: 1; fill: rgb(31, 119, 180); fill-opacity: 1; stroke: rgb(255, 255, 255); stroke-opacity: 1; opacity: 0.7;"/><g class="slicetext"><text data-notex="1" class="slicetext" text-anchor="middle" x="0" y="0" style="font-family: 'Open Sans', verdana, arial, sans-serif; font-size: 12px; fill: rgb(255, 255, 255); fill-opacity: 1; white-space: pre;" transform="translate(182.60572800110432,237.63534015873276)rotate(-88.551593562638)translate(-0.640625,4.5)">Repclass</text></g></g><g class="slice"><path class="surface" d="M208.26408752690102,292.25073358015015L166.5801094086263,304.6884169751877A217.5,217.5 0,0,0 188.11172752561953,353.76106062563724L225.48938202049564,331.50884850050977A174,174 0,0,1 208.26408752690102,292.25073358015015Z" style="pointer-events: all; stroke-width: 1; fill: rgb(31, 119, 180); fill-opacity: 1; stroke: rgb(255, 255, 255); stroke-opacity: 1; opacity: 0.7;"/><g class="slicetext"><text data-notex="1" class="slicetext" text-anchor="middle" x="0" y="0" style="font-family: 'Open Sans', verdana, arial, sans-serif; font-size: 12px; fill: rgb(255, 255, 255); fill-opacity: 1; white-space: pre;" transform="translate(195.7459197155999,321.1513649048371)translate(-0.6328125,4.5)">None</text></g></g><g class="slice"><path class="surface" d="M225.48938202049564,331.50884850050977L188.11172752561953,353.76106062563724A217.5,217.5 0,0,0 213.56814418643174,388.2600971754181L245.8545153491454,359.10807774033447A174,174 0,0,1 225.48938202049564,331.50884850050977Z" style="pointer-events: all; stroke-width: 1; fill: rgb(31, 119, 180); fill-opacity: 1; stroke: rgb(255, 255, 255); stroke-opacity: 1; opacity: 0.7;"/><g class="slicetext"><text data-notex="1" class="slicetext" text-anchor="middle" x="0" y="0" style="font-family: 'Open Sans', verdana, arial, sans-serif; font-size: 12px; fill: rgb(255, 255, 255); fill-opacity: 1; white-space: pre;" transform="translate(217.5562669389638,358.6758028706717)rotate(-36.423161880719476)translate(0.171875,4.5)">flanked</text></g></g><g class="slice"><path class="surface" d="M245.8545153491454,359.10807774033447L213.56814418643174,388.2600971754181A217.5,217.5 0,0,0 220.8869666391625,395.9777604355803L251.70957331133002,365.2822083484643A174,174 0,0,1 245.8545153491454,359.10807774033447Z" style="pointer-events: all; stroke-width: 1; fill: rgb(31, 119, 180); fill-opacity: 1; stroke: rgb(255, 255, 255); stroke-opacity: 1; opacity: 0.7;"/><g class="slicetext"><text data-notex="1" class="slicetext" text-anchor="middle" x="0" y="0" style="font-family: 'Open Sans', verdana, arial, sans-serif; font-size: 12px; fill: rgb(255, 255, 255); fill-opacity: 1; white-space: pre;" transform="translate(221.02439198756701,388.51830879448937)scale(0.5955245752050136)rotate(-43.48059324708106)translate(-0.125,4.5)">SD</text></g></g><g class="slice"><path class="surface" d="M251.70957331133002,365.2822083484643L220.8869666391625,395.9777604355803A217.5,217.5 0,0,0 274.79021820240405,435.5395027761888L294.83217456192324,396.93160222095105A174,174 0,0,1 251.70957331133002,365.2822083484643Z" style="pointer-events: all; stroke-width: 1; fill: rgb(31, 119, 180); fill-opacity: 1; stroke: rgb(255, 255, 255); stroke-opacity: 1; opacity: 0.7;"/><g class="slicetext"><text data-notex="1" class="slicetext" text-anchor="middle" x="0" y="0" style="font-family: 'Open Sans', verdana, arial, sans-serif; font-size: 12px; fill: rgb(255, 255, 255); fill-opacity: 1; white-space: pre;" transform="translate(253.68818756838118,407.7885023818127)rotate(36.27642789523509)translate(-0.640625,4.5)">Repclass</text></g></g><g class="slice"><path class="surface" d="M294.83217456192324,396.93160222095105L274.79021820240405,435.5395027761888A217.5,217.5 0,0,0 307.1875624244426,449.158470211267L320.75004993955406,407.8267761690136A174,174 0,0,1 294.83217456192324,396.93160222095105Z" style="pointer-events: all; stroke-width: 1; fill: rgb(31, 119, 180); fill-opacity: 1; stroke: rgb(255, 255, 255); stroke-opacity: 1; opacity: 0.7;"/><g class="slicetext"><text data-notex="1" class="slicetext" text-anchor="middle" x="0" y="0" style="font-family: 'Open Sans', verdana, arial, sans-serif; font-size: 12px; fill: rgb(255, 255, 255); fill-opacity: 1; white-space: pre;" transform="translate(299.17442597851664,422.87690699519317)rotate(-67.19943199747559)translate(0.171875,4.5)">flanked</text></g></g><g class="slice"><path class="surface" d="M320.75004993955406,407.8267761690136L307.1875624244426,449.158470211267A217.5,217.5 0,0,0 338.27008317691934,456.8762188540734L345.6160665415355,414.0009750832587A174,174 0,0,1 320.75004993955406,407.8267761690136Z" style="pointer-events: all; stroke-width: 1; fill: rgb(31, 119, 180); fill-opacity: 1; stroke: rgb(255, 255, 255); stroke-opacity: 1; opacity: 0.7;"/><g class="slicetext"><text data-notex="1" class="slicetext" text-anchor="middle" x="0" y="0" style="font-family: 'Open Sans', verdana, arial, sans-serif; font-size: 12px; fill: rgb(255, 255, 255); fill-opacity: 1; white-space: pre;" transform="translate(327.86511913429536,432.331384835182)rotate(-76.0555380246135)translate(-0.6328125,4.5)">None</text></g></g><g class="slice"><path class="surface" d="M345.6160665415355,414.0009750832587L338.27008317691934,456.8762188540734A217.5,217.5 0,0,0 342.6696092623871,457.58369495327463L349.1356874099097,414.56695596261966A174,174 0,0,1 345.6160665415355,414.0009750832587Z" style="pointer-events: all; stroke-width: 1; fill: rgb(31, 119, 180); fill-opacity: 1; stroke: rgb(255, 255, 255); stroke-opacity: 1; opacity: 0.7;"/><g class="slicetext"><text data-notex="1" class="slicetext" text-anchor="middle" x="0" y="0" style="font-family: 'Open Sans', verdana, arial, sans-serif; font-size: 12px; fill: rgb(255, 255, 255); fill-opacity: 1; white-space: pre;" transform="translate(340.8282638131489,455.00109354863537)scale(0.25667829110696)rotate(-80.8646260650047)translate(-0.125,4.5)">SD</text></g></g><g class="slice"><path class="surface" d="M349.1356874099097,414.56695596261966L342.6696092623871,457.58369495327463A217.5,217.5 0,0,0 402.7390886147018,458.2238812992797L397.19127089176146,415.0791050394238A174,174 0,0,1 349.1356874099097,414.56695596261966Z" style="pointer-events: all; stroke-width: 1; fill: rgb(31, 119, 180); fill-opacity: 1; stroke: rgb(255, 255, 255); stroke-opacity: 1; opacity: 0.7;"/><g class="slicetext"><text data-notex="1" class="slicetext" text-anchor="middle" x="0" y="0" style="font-family: 'Open Sans', verdana, arial, sans-serif; font-size: 12px; fill: rgb(255, 255, 255); fill-opacity: 1; white-space: pre;" transform="translate(372.8007904894609,448.85455771448545)rotate(0.6106027137898309)translate(-0.640625,4.5)">Repclass</text></g></g><g class="slice"><path class="surface" d="M397.19127089176146,415.0791050394238L402.7390886147018,458.2238812992797A217.5,217.5 0,0,0 436.9473218546377,450.9916768483527L424.55785748371017,409.2933414786821A174,174 0,0,1 397.19127089176146,415.0791050394238Z" style="pointer-events: all; stroke-width: 1; fill: rgb(31, 119, 180); fill-opacity: 1; stroke: rgb(255, 255, 255); stroke-opacity: 1; opacity: 0.7;"/><g class="slicetext"><text data-notex="1" class="slicetext" text-anchor="middle" x="0" y="0" style="font-family: 'Open Sans', verdana, arial, sans-serif; font-size: 12px; fill: rgb(255, 255, 255); fill-opacity: 1; white-space: pre;" transform="translate(415.4579612277583,433.86563180456506)rotate(78.06248027769004)translate(-0.6328125,4.5)">None</text></g></g><g class="slice"><path class="surface" d="M424.55785748371017,409.2933414786821L436.9473218546377,450.9916768483527A217.5,217.5 0,0,0 456.87882997424305,443.9996456623411L440.5030639793944,403.69971652987283A174,174 0,0,1 424.55785748371017,409.2933414786821Z" style="pointer-events: all; stroke-width: 1; fill: rgb(31, 119, 180); fill-opacity: 1; stroke: rgb(255, 255, 255); stroke-opacity: 1; opacity: 0.7;"/><g class="slicetext"><text data-notex="1" class="slicetext" text-anchor="middle" x="0" y="0" style="font-family: 'Open Sans', verdana, arial, sans-serif; font-size: 12px; fill: rgb(255, 255, 255); fill-opacity: 1; white-space: pre;" transform="translate(439.8181750089377,427.27091235995687)scale(0.9968004034831343)rotate(70.66898075102552)translate(0.171875,4.5)">flanked</text></g></g><g class="slice"><path class="surface" d="M440.5030639793944,403.69971652987283L456.87882997424305,443.9996456623411A217.5,217.5 0,0,0 461.4515589244422,442.0805049586099L444.1612471395538,402.1644039668879A174,174 0,0,1 440.5030639793944,403.69971652987283Z" style="pointer-events: all; stroke-width: 1; fill: rgb(31, 119, 180); fill-opacity: 1; stroke: rgb(255, 255, 255); stroke-opacity: 1; opacity: 0.7;"/><g class="slicetext"><text data-notex="1" class="slicetext" text-anchor="middle" x="0" y="0" style="font-family: 'Open Sans', verdana, arial, sans-serif; font-size: 12px; fill: rgb(255, 255, 255); fill-opacity: 1; white-space: pre;" transform="translate(458.1952513017998,440.7289956162175)scale(0.284988976909267)rotate(67.23256547806864)translate(-0.125,4.5)">SD</text></g></g><g class="slice"><path class="surface" d="M444.1612471395536,402.16440396688796L461.451558924442,442.08050495860994A217.5,217.5 0,0,0 478.3854584246865,433.8575109221413L457.7083667397492,395.58600873771303A174,174 0,0,1 444.1612471395536,402.16440396688796Z" style="pointer-events: all; stroke-width: 1; fill: rgb(31, 119, 180); fill-opacity: 1; stroke: rgb(255, 255, 255); stroke-opacity: 1; opacity: 0.7;"/><g class="slicetext"><text data-notex="1" class="slicetext" text-anchor="middle" x="0" y="0" style="font-family: 'Open Sans', verdana, arial, sans-serif; font-size: 12px; fill: rgb(255, 255, 255); fill-opacity: 1; white-space: pre;" transform="translate(460.47909120186114,418.530085071808)scale(0.8734707104135913)rotate(64.09908488482165)translate(-0.640625,4.5)">Repclass</text></g></g><g class="slice"><path class="surface" d="M457.7083667397492,395.58600873771303L478.3854584246865,433.8575109221413A217.5,217.5 0,0,0 484.18541544219784,430.60846619627375L462.3483323537582,392.986772957019A174,174 0,0,1 457.7083667397492,395.58600873771303Z" style="pointer-events: all; stroke-width: 1; fill: rgb(31, 119, 180); fill-opacity: 1; stroke: rgb(255, 255, 255); stroke-opacity: 1; opacity: 0.7;"/><g class="slicetext"><text data-notex="1" class="slicetext" text-anchor="middle" x="0" y="0" style="font-family: 'Open Sans', verdana, arial, sans-serif; font-size: 12px; fill: rgb(255, 255, 255); fill-opacity: 1; white-space: pre;" transform="translate(478.4232159951566,427.12356107595105)scale(0.36999147587813025)rotate(60.74313663616283)translate(-0.6328125,4.5)">None</text></g></g><g class="slice"><path class="surface" d="M462.3483323537582,392.986772957019L484.18541544219784,430.60846619627375A217.5,217.5 0,0,0 488.96652644054075,427.7508592451801L466.1732211524326,390.7006873961441A174,174 0,0,1 462.3483323537582,392.986772957019Z" style="pointer-events: all; stroke-width: 1; fill: rgb(31, 119, 180); fill-opacity: 1; stroke: rgb(255, 255, 255); stroke-opacity: 1; opacity: 0.7;"/><g class="slicetext"><text data-notex="1" class="slicetext" text-anchor="middle" x="0" y="0" style="font-family: 'Open Sans', verdana, arial, sans-serif; font-size: 12px; fill: rgb(255, 255, 255); fill-opacity: 1; white-space: pre;" transform="translate(483.168971930861,423.479354484057)scale(0.3076345105838616)rotate(59.133796150205114)translate(0.171875,4.5)">flanked</text></g></g><g class="slice"><path class="surface" d="M466.1732211524326,390.7006873961441L488.96652644054075,427.7508592451801A217.5,217.5 0,0,0 489.6391506204932,427.3353730891679L466.71132049639453,390.3682984713343A174,174 0,0,1 466.1732211524326,390.7006873961441Z" style="pointer-events: all; stroke-width: 1; fill: rgb(31, 119, 180); fill-opacity: 1; stroke: rgb(255, 255, 255); stroke-opacity: 1; opacity: 0.7;"/><g class="slicetext"><text data-notex="1" class="slicetext" text-anchor="middle" x="0" y="0" style="font-family: 'Open Sans', verdana, arial, sans-serif; font-size: 12px; fill: rgb(255, 255, 255); fill-opacity: 1; white-space: pre;" transform="translate(489.08864690606515,427.1963646240363)scale(0.046331723551330924)rotate(58.295992426633006)translate(-0.125,4.5)">SD</text></g></g></g></g><g class="glimages"/><defs id="topdefs-0022f5"><g class="clips"/></defs><g class="layer-above"><g class="imagelayer"/><g class="shapelayer"/></g><g class="infolayer"><g class="g-gtitle"/></g></svg>